<?xml version="1.0" encoding="UTF-8"?> <svg xmlns="http://www.w3.org/2000/svg" width="850" height="856" viewBox="0 0 850 856" fill="none"><path d="M28.7793 50.2798H821.219C821.219 77.4592 799.183 99.486 771.992 99.486H78.0061C50.8154 99.486 28.7793 77.4592 28.7793 50.2798Z" stroke="#426B62" stroke-width="0.5" stroke-linecap="round" stroke-linejoin="round"></path><path d="M130.326 547.28V708.21L359.321 822.208L422.379 853.639L425 854.927L485.438 824.828L719.63 708.21V547.28" stroke="#426B62" stroke-width="0.5" stroke-linecap="round" stroke-linejoin="round"></path><path d="M259.622 423.277C258.806 442.642 253.737 460.933 245.318 477.206C223.841 518.813 180.456 547.28 130.327 547.28C80.1979 547.28 36.856 518.813 15.3783 477.206C6.9591 460.933 1.89037 442.642 1.07422 423.277H259.622Z" stroke="#426B62" stroke-width="0.5" stroke-linecap="round" stroke-linejoin="round"></path><path d="M1.07422 423.277L130.37 124.776L259.665 423.277" stroke="#426B62" stroke-width="0.5" stroke-linecap="round" stroke-linejoin="round"></path><path d="M130.369 150.066C144.342 150.066 155.67 138.743 155.67 124.776C155.67 110.809 144.342 99.4858 130.369 99.4858C116.396 99.4858 105.068 110.809 105.068 124.776C105.068 138.743 116.396 150.066 130.369 150.066Z" stroke="#426B62" stroke-width="0.5" stroke-linecap="round" stroke-linejoin="round"></path><path d="M848.927 423.277C848.111 442.642 843.042 460.933 834.623 477.206C813.145 518.813 769.76 547.28 719.631 547.28C669.503 547.28 626.161 518.813 604.683 477.206C596.264 460.933 591.195 442.642 590.379 423.277H848.927Z" stroke="#426B62" stroke-width="0.5" stroke-linecap="round" stroke-linejoin="round"></path><path d="M590.379 423.277L719.631 124.776L848.927 423.277" stroke="#426B62" stroke-width="0.5" stroke-linecap="round" stroke-linejoin="round"></path><path d="M719.632 150.066C733.605 150.066 744.932 138.743 744.932 124.776C744.932 110.809 733.605 99.4858 719.632 99.4858C705.659 99.4858 694.331 110.809 694.331 124.776C694.331 138.743 705.659 150.066 719.632 150.066Z" stroke="#426B62" stroke-width="0.5" stroke-linecap="round" stroke-linejoin="round"></path><path d="M274.828 780.129L425 99.4858" stroke="#426B62" stroke-width="0.5" stroke-linecap="round" stroke-linejoin="round"></path><path d="M575.172 780.129L425 99.4858" stroke="#426B62" stroke-width="0.5" stroke-linecap="round" stroke-linejoin="round"></path><path d="M294.588 310.48H442.569C504.639 310.48 555.413 361.232 555.413 423.277C555.413 485.322 504.639 536.074 442.569 536.074H294.588" stroke="#426B62" stroke-width="0.5" stroke-linecap="round" stroke-linejoin="round"></path></svg> 